<svg width="24" height="24" viewBox="0 0 24 24" fill="none" xmlns="http://www.w3.org/2000/svg">
    <!-- Corpo principal com cantos arredondados -->
    <path d="M19 21H5C3.89543 21 3 20.1046 3 19V5C3 3.89543 3.89543 3 5 3H16.5858C16.851 3 17.1054 3.10536 17.2929 3.29289L20.7071 6.70711C20.8946 6.89464 21 7.149 21 7.41421V19C21 20.1046 20.1046 21 19 21Z" 
        stroke="#DEDEDE" 
        stroke-width="1.5" 
        stroke-linecap="round" 
        stroke-linejoin="round"/>
    
    <!-- Área superior estilizada -->
    <path d="M16 3V7C16 7.55228 15.5523 8 15 8H9C8.44772 8 8 7.55228 8 7V3" 
        stroke="#DEDEDE" 
        stroke-width="1.5" 
        stroke-linecap="round" 
        stroke-linejoin="round"/>
    
    <!-- Área de dados com cantos arredondados -->
    <path d="M17 21V15C17 14.4477 16.5523 14 16 14H8C7.44772 14 7 14.4477 7 15V21" 
        stroke="#DEDEDE" 
        stroke-width="1.5" 
        stroke-linecap="round" 
        stroke-linejoin="round"/>
    
    <!-- Detalhe decorativo -->
    <path d="M12 16V19" 
        stroke="#DEDEDE" 
        stroke-width="1.5" 
        stroke-linecap="round" 
        stroke-linejoin="round"/>
</svg>