<svg xmlns="http://www.w3.org/2000/svg"  viewBox="0 0 50 50" width="50px" height="50px"><path d="M 8.7011719 3.8574219 C 8.0878809 3.8356304 7.4668303 4.0448944 6.9882812 4.4902344 A 1.0001 1.0001 0 0 0 6.984375 4.4941406 L 2.8769531 8.3554688 C 1.918855 9.2470795 1.8647764 10.774891 2.7558594 11.732422 A 1.0001 1.0001 0 0 0 2.7617188 11.740234 L 13.529297 23.113281 A 1.0001 1.0001 0 0 0 15.251953 22.492188 L 15.402344 20.296875 L 17.431641 20.488281 A 1.0001 1.0001 0 0 0 18.447266 19.103516 L 17.503906 16.863281 L 19.847656 17.222656 A 1.0001 1.0001 0 0 0 20.726562 15.546875 L 10.367188 4.609375 C 9.9212484 4.1310974 9.3144629 3.8792134 8.7011719 3.8574219 z M 35.679688 5 C 35.010441 5 34.37261 5.2861489 33.923828 5.7792969 L 23.466797 17.263672 A 1.0001 1.0001 0 0 0 23.240234 18.195312 L 23.074219 17.701172 L 17.21875 24.164062 C 16.4835 24.974723 16.485665 26.224579 17.222656 27.033203 A 1.0001 1.0001 0 0 0 17.224609 27.035156 L 27.003906 37.677734 A 1.0001 1.0001 0 0 0 27.056641 37.728516 L 33.927734 45.195312 A 1.0001 1.0001 0 0 0 33.931641 45.199219 C 34.382499 45.682649 35.015621 45.960938 35.679688 45.960938 L 45.646484 45.960938 C 46.199043 45.960938 46.690638 45.598489 46.886719 45.148438 C 47.082546 44.698968 47.012786 44.089733 46.636719 43.685547 L 46.636719 43.683594 L 29.886719 25.683594 L 46.642578 7.2832031 L 46.642578 7.28125 C 47.386447 6.4640408 46.768119 5 45.646484 5 L 35.679688 5 z M 8.6328125 5.84375 C 8.7302179 5.8474675 8.8265108 5.8911824 8.9042969 5.9746094 A 1.0001 1.0001 0 0 0 8.9082031 5.9804688 L 17.265625 14.802734 L 16.041016 14.615234 A 1.0001 1.0001 0 0 0 14.966797 15.990234 L 15.955078 18.339844 L 14.568359 18.208984 A 1.0001 1.0001 0 0 0 13.476562 19.136719 L 13.412109 20.082031 L 4.2207031 10.371094 C 4.0657793 10.204624 4.0723793 9.9727485 4.2382812 9.8183594 A 1.0001 1.0001 0 0 0 4.2421875 9.8164062 L 8.3515625 5.953125 L 8.3535156 5.953125 C 8.4368925 5.8763124 8.5354071 5.8400325 8.6328125 5.84375 z M 35.679688 7 L 44.195312 7 L 28.015625 24.767578 A 1.0001 1.0001 0 0 0 27.558594 25.287109 C 26.312916 26.720532 25.798184 28.529406 25.763672 30.492188 C 25.746052 31.493996 25.845352 32.547124 26.019531 33.652344 L 18.699219 25.685547 L 18.699219 25.683594 C 18.655669 25.634104 18.654959 25.554662 18.699219 25.505859 L 24.949219 18.611328 A 1.0001 1.0001 0 0 0 25.173828 17.679688 L 25.341797 18.175781 L 35.402344 7.1269531 C 35.479562 7.0421011 35.576934 7 35.679688 7 z M 28.595703 27.228516 L 44.164062 43.960938 L 35.679688 43.960938 C 35.571753 43.960938 35.469673 43.916508 35.394531 43.835938 L 28.652344 36.509766 C 28.094277 34.209281 27.734537 32.1843 27.763672 30.527344 C 27.787091 29.195674 28.03855 28.126756 28.595703 27.228516 z M 14.955078 29.796875 A 1.0001 1.0001 0 0 0 14.853516 29.798828 L 12.380859 29.951172 A 1.0001 1.0001 0 0 0 11.708984 30.269531 L 2.7539062 39.929688 L 2.7558594 39.929688 C 1.8651794 40.886784 1.9203979 42.414764 2.8769531 43.306641 A 1.0001 1.0001 0 0 0 2.890625 43.318359 L 7.1445312 47.136719 C 7.1445312 47.136719 7.1464844 47.136719 7.1464844 47.136719 C 8.1036749 48.026004 9.6300551 47.973653 10.521484 47.017578 A 1.0001 1.0001 0 0 0 10.523438 47.015625 L 19.96875 36.830078 A 1.0001 1.0001 0 0 0 20.224609 36.292969 L 20.597656 33.703125 A 1.0001 1.0001 0 0 0 19.349609 32.59375 L 16.003906 33.488281 L 15.916016 30.763672 A 1.0001 1.0001 0 0 0 14.955078 29.796875 z M 13.949219 31.859375 L 14.044922 34.8125 A 1.0001 1.0001 0 0 0 15.302734 35.746094 L 18.402344 34.917969 L 18.289062 35.699219 L 9.0605469 45.652344 C 8.904424 45.819789 8.6747147 45.829152 8.5078125 45.673828 A 1.0001 1.0001 0 0 0 8.4941406 45.660156 L 4.2402344 41.84375 L 4.2402344 41.841797 C 4.0745036 41.685759 4.0659313 41.457329 4.2207031 41.291016 A 1.0001 1.0001 0 0 0 4.2207031 41.289062 L 12.902344 31.923828 L 13.949219 31.859375 z"/></svg>